# File units = meters
mtllib ConteedorTipo2.mtl
g Part 1
v -0.14885 0.0268 0.3 
v -0.14885 0.0268 0 
v -0.14885 -0.0132 0 
v -0.14885 -0.0132 0.3 
v 0.05115 -0.0132 0 
v 0.05115 -0.0132 0.3 
v 0.05115 0.0268 0 
v 0.05115 0.0268 0.3 
v 0.04315 0.0268 0.008 
v -0.14085 0.0268 0.008 
v -0.14085 0.0268 0.292 
v 0.04315 0.0268 0.292 
v -0.14085 -0.0052 0.292 
v -0.14085 -0.0052 0.008 
v 0.04315 -0.0052 0.292 
v 0.04315 -0.0052 0.008 
vn -1 0 0 
vn 0 -1 0 
vn 1 0 0 
vn 0 0 1 
vn 0 0 -1 
vn 0 1 0 
vn 1 0 0 
vn -1 0 0 
vn 0 0 -1 
vn 0 0 1 
usemtl 0.615686_0.811765_0.929412_0.000000_0.000000
o mesh0
f 1//1 2//1 3//1 
f 3//1 4//1 1//1 
o mesh1
f 4//2 3//2 5//2 
f 5//2 6//2 4//2 
o mesh2
f 6//3 5//3 7//3 
f 7//3 8//3 6//3 
o mesh3
f 6//4 8//4 1//4 
f 1//4 4//4 6//4 
o mesh4
f 3//5 2//5 7//5 
f 7//5 5//5 3//5 
o mesh5
f 8//6 7//6 9//6 
f 2//6 10//6 9//6 
f 2//6 1//6 11//6 
f 1//6 8//6 12//6 
f 9//6 7//6 2//6 
f 12//6 11//6 1//6 
f 11//6 10//6 2//6 
f 9//6 12//6 8//6 
o mesh6
f 13//7 14//7 10//7 
f 10//7 11//7 13//7 
o mesh7
f 15//6 16//6 14//6 
f 14//6 13//6 15//6 
o mesh8
f 12//8 9//8 16//8 
f 16//8 15//8 12//8 
o mesh9
f 13//9 11//9 12//9 
f 12//9 15//9 13//9 
o mesh10
f 16//10 9//10 10//10 
f 10//10 14//10 16//10 
