# File units = meters
mtllib Part Studio 1 - Part 4.mtl
g Part 4
v 0.0756916 0.0834601 -0.0238 
v 0.0756916 0.0834601 0.0262 
v 0.0256916 0.0834601 0.0262 
v 0.0256916 0.0834601 -0.0238 
v 0.0256916 0.13346 -0.0238 
v 0.0756916 0.13346 -0.0238 
v 0.0256916 0.13346 0.0762 
v 0.0756916 0.13346 0.0762 
v 0.0756916 0.0334601 0.0762 
v 0.0756916 0.0334601 0.0262 
v 0.0256916 0.0834601 0.0762 
v -0.0243084 0.0334601 0.0762 
v -0.0243084 0.0834601 0.0762 
v -0.0243084 0.0334601 0.0262 
v -0.0243084 0.0834601 0.0262 
vn 0 -1 0 
vn -6.12323e-17 0 -1 
vn 0 1 0 
vn 1 0 -6.12323e-17 
vn -1 0 6.12323e-17 
vn 6.12323e-17 0 1 
vn -6.12323e-17 0 -1 
vn 0 1 0 
vn 0 -1 0 
vn -1 0 6.12323e-17 
usemtl 0.917647_0.917647_0.917647_0.000000_0.000000
o mesh0
f 1//1 2//1 3//1 
f 3//1 4//1 1//1 
o mesh1
f 5//2 6//2 1//2 
f 1//2 4//2 5//2 
o mesh2
f 6//3 5//3 7//3 
f 7//3 8//3 6//3 
o mesh3
f 6//4 8//4 2//4 
f 9//4 10//4 2//4 
f 2//4 8//4 9//4 
f 2//4 1//4 6//4 
o mesh4
f 7//5 5//5 3//5 
f 5//5 4//5 3//5 
f 3//5 11//5 7//5 
o mesh5
f 12//6 9//6 11//6 
f 8//6 7//6 11//6 
f 11//6 9//6 8//6 
f 11//6 13//6 12//6 
o mesh6
f 14//7 15//7 3//7 
f 3//7 10//7 14//7 
f 3//7 2//7 10//7 
o mesh7
f 13//8 11//8 3//8 
f 3//8 15//8 13//8 
o mesh8
f 10//9 9//9 12//9 
f 12//9 14//9 10//9 
o mesh9
f 12//10 13//10 15//10 
f 15//10 14//10 12//10 
