# File units = meters
mtllib Part Studio 1 - Part 3.mtl
g Part 3
v 0.0250573 -0.0167114 -0.024 
v 0.0250573 -0.0167114 0.026 
v 0.0250573 0.0332886 0.026 
v 0.0250573 0.0332886 -0.024 
v -0.0249427 0.0332886 -0.024 
v -0.0249427 0.0332886 0.026 
v -0.0249427 0.133289 0.026 
v -0.0249427 0.133289 -0.024 
v 0.0250573 0.133289 0.026 
v 0.0250573 0.133289 -0.024 
v 0.0250573 0.0832886 0.026 
v 0.0250573 0.0832886 -0.024 
v 0.0750573 0.0832886 -0.024 
v 0.0750573 -0.0167114 -0.024 
v 0.0750573 -0.0167114 0.026 
v 0.0750573 0.0832886 0.026 
vn -1 6.12323e-17 1.22465e-16 
vn -6.12323e-17 -1 0 
vn 6.12323e-17 1 0 
vn 1 -6.12323e-17 -1.22465e-16 
vn -1.22465e-16 7.4988e-33 -1 
vn 1.22465e-16 -7.4988e-33 1 
vn 6.12323e-17 1 0 
vn 1 -6.12323e-17 -1.22465e-16 
vn -6.12323e-17 -1 0 
usemtl 0.231373_0.380392_0.705882_0.000000_0.000000
o mesh0
f 1//1 2//1 3//1 
f 3//1 4//1 1//1 
o mesh1
f 5//2 4//2 3//2 
f 3//2 6//2 5//2 
o mesh2
f 5//1 6//1 7//1 
f 7//1 8//1 5//1 
o mesh3
f 8//3 7//3 9//3 
f 9//3 10//3 8//3 
o mesh4
f 10//4 9//4 11//4 
f 11//4 12//4 10//4 
o mesh5
f 12//5 13//5 4//5 
f 8//5 10//5 12//5 
f 12//5 5//5 8//5 
f 14//5 1//5 4//5 
f 4//5 13//5 14//5 
f 4//5 5//5 12//5 
o mesh6
f 7//6 6//6 11//6 
f 11//6 6//6 3//6 
f 15//6 16//6 3//6 
f 3//6 16//6 11//6 
f 11//6 9//6 7//6 
f 3//6 2//6 15//6 
o mesh7
f 12//7 11//7 16//7 
f 16//7 13//7 12//7 
o mesh8
f 13//8 16//8 15//8 
f 15//8 14//8 13//8 
o mesh9
f 1//9 14//9 15//9 
f 15//9 2//9 1//9 
