# File units = meters
mtllib Part Studio 1 - Part 5.mtl
g Part 5
v 0.0247377 0.133618 -0.024 
v 0.0247377 0.133618 -0.074 
v -0.0752623 0.133618 -0.074 
v -0.0752623 0.133618 -0.024 
v 0.0247377 0.0836175 -0.024 
v 0.0247377 0.0836175 -0.074 
v -0.0752623 0.0836175 -0.024 
v -0.0252623 0.0836175 -0.024 
v -0.0252623 0.0836175 -0.074 
v -0.0752623 0.0336175 -0.074 
v -0.0252623 0.0336175 -0.074 
v -0.0752623 0.0336175 0.026 
v -0.0752623 0.0836175 0.026 
v -0.0252623 0.0336175 0.026 
v -0.0252623 0.0836175 0.026 
vn 0 1 0 
vn 1 0 0 
vn 0 0 1 
vn 0 -1 0 
vn 0 0 -1 
vn -1 0 0 
vn 1 5.20417e-17 0 
vn 0 1 0 
vn 0 -1 0 
vn 0 0 1 
usemtl 0.768627_0.886275_0.952941_0.000000_0.000000
o mesh0
f 1//1 2//1 3//1 
f 3//1 4//1 1//1 
o mesh1
f 5//2 6//2 2//2 
f 2//2 1//2 5//2 
o mesh2
f 4//3 7//3 8//3 
f 8//3 1//3 4//3 
f 8//3 5//3 1//3 
o mesh3
f 6//4 5//4 8//4 
f 8//4 9//4 6//4 
o mesh4
f 10//5 3//5 9//5 
f 2//5 6//5 9//5 
f 9//5 3//5 2//5 
f 9//5 11//5 10//5 
o mesh5
f 3//6 10//6 7//6 
f 12//6 13//6 7//6 
f 7//6 10//6 12//6 
f 7//6 4//6 3//6 
o mesh6
f 14//7 11//7 8//7 
f 11//7 9//7 8//7 
f 8//7 15//7 14//7 
o mesh7
f 15//8 8//8 7//8 
f 7//8 13//8 15//8 
o mesh8
f 12//9 10//9 11//9 
f 11//9 14//9 12//9 
o mesh9
f 14//10 15//10 13//10 
f 13//10 12//10 14//10 
